# xmcd
#
# Track frame offsets:
#	150
#	15830
#	33095
#	46600
#	58674
#	72354
#	96559
#	113110
#	128585
#	142193
#
# Disc length: 2131 seconds
#
# Revision: 0
# Processed by: cddbd v1.5.2PL0 Copyright (c) Steve Scherf et al.
# Submitted via: audiograbber 1.83.01
#
DISCID=8008510a
DTITLE=Sylvers - The Best Of  
DYEAR=1900
DGENRE=Oldies
TTITLE0=Boogie Fever
TTITLE1=High School Dance
TTITLE2=Cotton Candy
TTITLE3=Any Way You Want Me
TTITLE4=Hot Line
TTITLE5=Don't Stop, Get Off
TTITLE6=New Horizons
TTITLE7=The Roulette Wheel Of Love
TTITLE8=Free Style
TTITLE9=Ain't No Doubt About It
EXTD=
EXTT0=
EXTT1=
EXTT2=
EXTT3=
EXTT4=
EXTT5=
EXTT6=
EXTT7=
EXTT8=
EXTT9=
PLAYORDER=
